<?xml version="1.0" encoding="utf-8"?>
<!-- Generator: Adobe Illustrator 22.1.0, SVG Export Plug-In . SVG Version: 6.00 Build 0)  -->
<svg version="1.1" id="Capa_1" xmlns="http://www.w3.org/2000/svg" xmlns:xlink="http://www.w3.org/1999/xlink" x="0px" y="0px"
	 viewBox="0 0 340 190.4" style="enable-background:new 0 0 340 190.4;" xml:space="preserve">
<style type="text/css">
	.st0{fill:#FFFFFF;}
</style>
<g>
	<path class="st0" d="M83.1,122.6h-9V82.5c-0.7,0.5-1.7,1.3-3,2.3c-1.3,1-2.5,1.9-3.5,2.7c-1,0.8-2,1.6-2.8,2.2l-9.2-7.3v40.1h-9
		V64.1l18.2,14.2C75.5,70,81.6,65.3,83.1,64.1V122.6z"/>
	<path class="st0" d="M134.7,122.6h-9.5l-4-12.6h-15.4l-4,12.6h-9.5l4-12.6H94v-9.2h5.3l10.4-33.2h7.9L134.7,122.6z M118.5,100.7
		l-4.9-15.6l-4.9,15.6H118.5z"/>
	<path class="st0" d="M174.2,94.9c0,7.5-2.7,14-8,19.5c-5.4,5.5-11.8,8.2-19.2,8.2h-4.5V67.3h4.5c7.4,0,13.8,2.7,19.2,8.2
		C171.5,81,174.2,87.5,174.2,94.9z M161.4,106.5c2.5-3.4,3.8-7.2,3.8-11.6c0-4.4-1.3-8.2-3.8-11.5c-2.5-3.3-5.8-5.5-9.9-6.4v35.9
		C155.6,112,158.9,109.9,161.4,106.5z"/>
	<path class="st0" d="M235.7,94.9c0,7.5-2.7,14-8.1,19.5c-5.4,5.5-11.9,8.2-19.5,8.2c-7.6,0-14.1-2.7-19.5-8.1
		c-5.4-5.4-8.1-11.9-8.1-19.5c0-7.5,2.7-14,8.2-19.5c5.5-5.4,11.9-8.1,19.4-8.1c7.5,0,14,2.7,19.4,8.2C233,81,235.7,87.5,235.7,94.9
		z M221.3,108.1c3.6-3.7,5.5-8,5.5-13.1c0-5.1-1.8-9.5-5.5-13.1c-3.7-3.6-8.1-5.5-13.1-5.5s-9.5,1.8-13.1,5.5
		c-3.7,3.6-5.5,8-5.5,13.1c0,5.1,1.8,9.5,5.5,13.1c3.7,3.7,8,5.5,13.1,5.5C213.3,113.6,217.6,111.8,221.3,108.1z"/>
	<path class="st0" d="M272.3,88.6h-17.6v34.1h-9V88.6H242v-9.1h3.6V67.3h26.1v9h-17v3.1h17.6V88.6z"/>
	<path class="st0" d="M308.8,88.6h-17.6v34.1h-9V88.6h-3.6v-9.1h3.6V67.3h26.1v9h-17v3.1h17.6V88.6z"/>
</g>
<rect x="35.8" y="132.7" class="st0" width="283.6" height="5.4"/>
<rect x="68.5" y="144.4" class="st0" width="218.1" height="5.4"/>
<rect x="35.8" y="50.1" class="st0" width="283.6" height="5.4"/>
<rect x="68.5" y="38.4" class="st0" width="218.1" height="5.4"/>
</svg>
